<svg width="229" height="132" viewBox="0 0 229 132" fill="none" xmlns="http://www.w3.org/2000/svg">
<path d="M51.0742 31.3851C61.2505 26.3688 71.3808 22.5721 81.373 21.8128C81.442 20.0639 81.534 18.3382 81.6031 16.6124C71.5879 17.6709 61.4808 21.0534 51.3275 25.7245C51.2354 27.6114 51.1663 29.4982 51.0742 31.3851Z" fill="#2D81DF"/>
<path d="M81.4895 25.7481C72.142 26.2773 62.6564 29.7058 53.1478 34.331C53.0556 36.1949 52.9866 38.0816 52.8945 39.9685C62.4262 35.1133 71.9118 31.4087 81.2592 31.0865C81.3283 29.2917 81.4203 27.5199 81.4895 25.7481Z" fill="#FFCC55"/>
<path d="M48.1953 52.0255C60.0522 45.4446 71.8402 39.7611 83.3749 40.5434L83.6281 35.0439C72.0935 34.5376 60.3055 39.8531 48.4715 46.273C48.3795 48.1829 48.3103 50.1157 48.2183 52.0255H48.1953Z" fill="#FFCC55"/>
<path d="M84.4117 54.4194C84.3196 56.3063 84.2506 58.2162 84.1584 60.126C58.971 56.4443 32.1719 89.1881 6.98438 85.5064L8.06648 79.984C33.0008 82.8832 59.5005 50.5306 84.4117 54.4194Z" fill="#EF4123"/>
<path d="M89.1777 65.5105C89.0856 67.4434 89.0165 69.3532 88.9244 71.286C74.7191 65.8096 59.8459 74.8757 45.0189 82.7912C30.2611 90.9139 15.5722 97.9091 1.34375 94.3655L2.42585 88.866C30.6064 97.3108 61.0432 55.593 89.1777 65.5105Z" fill="#EF4123"/>
<path d="M86.4621 74.9218C86.37 76.8548 86.2779 78.8106 86.2088 80.7435C72.556 77.2919 58.3737 85.9669 44.2604 93.008C30.1701 100.371 16.172 106.124 2.49609 104.513L3.5782 98.9908C16.9547 101.016 30.7226 94.7338 44.5137 87.2324C58.65 79.8231 72.8322 71.1482 86.4621 74.8988V74.9218Z" fill="#EF4123"/>
<path d="M35.8531 119.745L35.6229 125.13C27.5186 127.638 19.4605 129.272 11.4023 130.998L12.3923 125.981C20.1972 124.532 28.0022 122.576 35.8762 119.745H35.8531Z" fill="#007932"/>
<path d="M82.8242 90.1548C69.7699 89.0043 56.3014 97.127 42.9248 103.179C29.2259 109.783 15.6422 114.178 2.26562 114.109L3.34772 108.54C16.425 109.345 29.7555 104.283 43.1781 97.4261C56.5776 90.9141 70.0462 82.6303 83.1004 84.195L82.8242 90.1548Z" fill="#007932"/>
<path d="M64.6376 103.868C56.2342 106.86 47.7846 111.094 39.3581 114.361C28.6983 118.687 18.1076 121.471 7.58594 122.967L8.622 117.721C18.8674 116.639 29.2048 113.418 39.6114 108.77C48.0378 105.134 56.5104 100.578 64.914 97.5406L64.6376 103.891V103.868Z" fill="#007932"/>
<path d="M77.918 8.26118L77.6878 13.2314C70.0671 14.497 62.4003 16.9361 54.6875 20.1116L54.9408 14.6351C62.6305 11.7818 70.2972 9.64181 77.918 8.26118Z" fill="#2D81DF"/>
<path d="M65.2108 2.69222C68.8483 1.74879 72.5091 0.897406 76.1468 0C76.1468 1.58772 76.1237 3.22146 76.1008 4.8552C72.394 5.66056 68.6873 6.55796 64.9805 7.61644L65.2108 2.69222Z" fill="#2D81DF"/>
<path d="M81.6479 49.9312C66.8898 49.1948 51.6024 60.0557 36.4531 67.9943L36.7064 62.1727C51.8556 54.234 67.1202 43.7183 81.9011 44.3397C81.809 46.1804 81.7399 48.0443 81.6479 49.9312Z" fill="#FFCC55"/>
<path d="M105.546 90.592H101.586L100.757 92.4558H99.6523L103.014 85.0234H104.073L107.457 92.4558H106.352L105.523 90.592H105.546ZM105.178 89.7406L103.566 86.105L101.955 89.7406H105.155H105.178Z" fill="white"/>
<path d="M115.886 93.1233C115.656 93.3994 115.357 93.6295 115.058 93.7675C114.735 93.9057 114.39 93.9977 114.022 93.9977C113.561 93.9977 113.124 93.8826 112.709 93.6526C112.295 93.4224 111.834 93.0542 111.305 92.5019C110.614 92.4559 109.969 92.2719 109.417 91.9497C108.864 91.6046 108.404 91.1674 108.105 90.5921C107.782 90.0398 107.621 89.3956 107.621 88.7282C107.621 88.0609 107.782 87.3707 108.128 86.7955C108.473 86.2202 108.933 85.7599 109.555 85.4379C110.177 85.1157 110.844 84.9546 111.581 84.9546C112.318 84.9546 113.009 85.1157 113.607 85.4379C114.206 85.7599 114.689 86.2202 115.012 86.7955C115.357 87.3707 115.518 88.0149 115.518 88.7513C115.518 89.3496 115.403 89.9248 115.15 90.431C114.896 90.9372 114.551 91.3745 114.114 91.7196C113.676 92.0648 113.17 92.3179 112.594 92.433C112.847 92.6861 113.078 92.8932 113.308 93.0082C113.538 93.1233 113.768 93.1923 114.022 93.1923C114.551 93.1923 114.988 92.9852 115.38 92.5479L115.886 93.1463V93.1233ZM109.072 90.1779C109.325 90.6152 109.67 90.9603 110.108 91.2134C110.545 91.4665 111.052 91.5816 111.581 91.5816C112.111 91.5816 112.617 91.4665 113.055 91.2134C113.492 90.9603 113.837 90.6152 114.091 90.1779C114.344 89.7407 114.459 89.2576 114.459 88.7282C114.459 88.1991 114.344 87.6928 114.091 87.2786C113.837 86.8415 113.492 86.4962 113.055 86.2432C112.617 85.9901 112.134 85.875 111.581 85.875C111.028 85.875 110.545 85.9901 110.108 86.2432C109.67 86.4962 109.325 86.8415 109.072 87.2786C108.818 87.7158 108.703 88.1991 108.703 88.7282C108.703 89.2576 108.818 89.7638 109.072 90.1779Z" fill="white"/>
<path d="M117.727 91.6721C117.175 91.097 116.898 90.2916 116.898 89.2331V84.9991H117.958V89.187C117.958 90.7748 118.648 91.5801 120.053 91.5801C120.743 91.5801 121.25 91.373 121.618 90.9819C121.987 90.5907 122.171 89.9923 122.171 89.187V84.9991H123.207V89.2331C123.207 90.2916 122.93 91.1199 122.378 91.6721C121.825 92.2244 121.066 92.5235 120.053 92.5235C119.04 92.5235 118.28 92.2475 117.727 91.6721Z" fill="white"/>
<path d="M125.184 84.9992H126.243V92.4316H125.184V84.9992Z" fill="white"/>
<path d="M132.83 85.9195H130.273V84.9991H136.421V85.9195H133.866V92.4315H132.806V85.9195H132.83Z" fill="white"/>
<path d="M142.868 91.5111V92.4316H137.48V84.9992H142.73V85.9196H138.54V88.1977H142.27V89.095H138.54V91.4882H142.868V91.5111Z" fill="white"/>
<path d="M151.2 92.4316V87.0241L148.507 91.5342H148.023L145.33 87.0472V92.4316H144.316V84.9992H145.192L148.3 90.2226L151.362 84.9992H152.237V92.4316H151.224H151.2Z" fill="white"/>
<path d="M158.614 86.4028H156.242V84.9991H162.712V86.4028H160.34V92.4315H158.614V86.4028Z" fill="white"/>
<path d="M168.309 92.4315L166.882 90.3605H165.294V92.4315H163.566V84.9991H166.79C167.457 84.9991 168.009 85.1142 168.516 85.3213C169.023 85.5284 169.368 85.8506 169.645 86.2647C169.897 86.6789 170.036 87.1391 170.036 87.6914C170.036 88.2436 169.897 88.7269 169.645 89.118C169.368 89.5092 169 89.8314 168.516 90.0385L170.174 92.4315H168.332H168.309ZM167.871 86.7249C167.595 86.4948 167.204 86.3798 166.697 86.3798H165.294V88.98H166.697C167.204 88.98 167.618 88.8649 167.871 88.6347C168.147 88.4047 168.287 88.0825 168.287 87.6684C168.287 87.2542 168.147 86.932 167.871 86.702V86.7249Z" fill="white"/>
<path d="M176.551 90.8439H173.097L172.43 92.4316H170.656L173.972 84.9992H175.676L178.992 92.4316H177.195L176.528 90.8439H176.551ZM175.999 89.5323L174.825 86.679L173.649 89.5323H175.999Z" fill="white"/>
<path d="M186.243 89.2573C186.474 89.5795 186.612 89.9706 186.612 90.4309C186.612 91.0751 186.359 91.5814 185.852 91.9265C185.345 92.2718 184.609 92.4558 183.642 92.4558H179.797V85.0234H183.435C184.333 85.0234 185.046 85.2076 185.529 85.5527C186.014 85.8978 186.266 86.381 186.266 86.9563C186.266 87.3245 186.174 87.6466 186.014 87.9228C185.829 88.1988 185.598 88.429 185.276 88.5901C185.691 88.7281 186.036 88.9582 186.266 89.2573H186.243ZM181.5 86.312V88.0608H183.204C183.619 88.0608 183.941 87.9917 184.171 87.8307C184.402 87.6926 184.493 87.4625 184.493 87.1634C184.493 86.8643 184.378 86.6572 184.171 86.5191C183.941 86.381 183.619 86.312 183.204 86.312H181.5ZM184.54 90.9371C184.769 90.7991 184.885 90.5689 184.885 90.2468C184.885 89.6255 184.424 89.3264 183.504 89.3264H181.5V91.1672H183.504C183.964 91.1672 184.309 91.0982 184.54 90.9371Z" fill="white"/>
<path d="M192.733 90.8438H189.28L188.612 92.4315H186.84L190.155 84.9991H191.859L195.174 92.4315H193.378L192.71 90.8438H192.733ZM192.181 89.5322L191.007 86.6789L189.833 89.5322H192.181Z" fill="white"/>
<path d="M195.98 84.9991H197.708V91.0279H201.437V92.4315H195.98V84.9991Z" fill="white"/>
<path d="M209.128 84.9992V92.4316H207.401V89.3942H204.016V92.4316H202.289V84.9992H204.016V87.9216H207.401V84.9992H209.128Z" fill="white"/>
<path d="M212.397 92.0637C211.776 91.7416 211.292 91.2814 210.947 90.6832C210.602 90.0849 210.418 89.4405 210.418 88.7043C210.418 87.968 210.602 87.3236 210.947 86.7253C211.292 86.1271 211.776 85.6899 212.397 85.3448C213.02 85.0226 213.709 84.8385 214.493 84.8385C215.276 84.8385 215.966 84.9996 216.564 85.3448C217.187 85.6668 217.67 86.1271 218.016 86.7253C218.361 87.3006 218.545 87.968 218.545 88.7043C218.545 89.4405 218.361 90.0849 218.016 90.6832C217.67 91.2584 217.187 91.7186 216.564 92.0637C215.943 92.3859 215.252 92.57 214.493 92.57C213.733 92.57 213.02 92.409 212.397 92.0637ZM215.668 90.7983C216.012 90.5912 216.288 90.315 216.495 89.9468C216.704 89.5787 216.795 89.1645 216.795 88.7043C216.795 88.244 216.704 87.8298 216.495 87.4617C216.288 87.0935 216.012 86.8175 215.668 86.6104C215.321 86.4033 214.907 86.3112 214.47 86.3112C214.032 86.3112 213.64 86.4033 213.273 86.6104C212.927 86.8175 212.651 87.0935 212.444 87.4617C212.237 87.8298 212.144 88.244 212.144 88.7043C212.144 89.1645 212.237 89.5787 212.444 89.9468C212.651 90.315 212.927 90.5912 213.273 90.7983C213.618 91.0052 214.032 91.0974 214.47 91.0974C214.907 91.0974 215.299 91.0052 215.668 90.7983Z" fill="white"/>
<path d="M219.352 92.2951C219.214 92.1569 219.145 91.9729 219.145 91.7658C219.145 91.5587 219.214 91.3976 219.352 91.2595C219.489 91.1215 219.674 91.0524 219.858 91.0524C220.043 91.0524 220.227 91.1215 220.365 91.2595C220.503 91.3976 220.572 91.5587 220.572 91.7888C220.572 92.0189 220.503 92.18 220.365 92.318C220.227 92.456 220.065 92.5251 219.881 92.5251C219.696 92.5251 219.513 92.456 219.374 92.318L219.352 92.2951Z" fill="white"/>
<path d="M105.546 102.879H101.586L100.757 104.742H99.6523L103.014 97.3101H104.073L107.457 104.742H106.352L105.523 102.879H105.546ZM105.178 102.027L103.566 98.3915L101.955 102.027H105.155H105.178Z" fill="white"/>
<path d="M115.886 105.41C115.656 105.686 115.357 105.916 115.058 106.054C114.735 106.192 114.39 106.284 114.022 106.284C113.561 106.284 113.124 106.169 112.709 105.939C112.295 105.709 111.834 105.341 111.305 104.788C110.614 104.742 109.969 104.558 109.417 104.236C108.864 103.891 108.404 103.454 108.105 102.878C107.782 102.326 107.621 101.682 107.621 101.015C107.621 100.347 107.782 99.657 108.128 99.0818C108.473 98.5065 108.933 98.0463 109.555 97.7241C110.177 97.402 110.844 97.2409 111.581 97.2409C112.318 97.2409 113.009 97.402 113.607 97.7241C114.206 98.0463 114.689 98.5065 115.012 99.0818C115.357 99.657 115.518 100.301 115.518 101.038C115.518 101.636 115.403 102.211 115.15 102.717C114.896 103.224 114.551 103.661 114.114 104.006C113.676 104.351 113.17 104.604 112.594 104.719C112.847 104.972 113.078 105.18 113.308 105.295C113.538 105.41 113.768 105.479 114.022 105.479C114.551 105.479 114.988 105.272 115.38 104.834L115.886 105.433V105.41ZM109.072 102.464C109.325 102.902 109.67 103.247 110.108 103.5C110.545 103.753 111.052 103.868 111.581 103.868C112.111 103.868 112.617 103.753 113.055 103.5C113.492 103.247 113.837 102.902 114.091 102.464C114.344 102.027 114.459 101.544 114.459 101.015C114.459 100.485 114.344 99.9792 114.091 99.565C113.837 99.1278 113.492 98.7826 113.055 98.5295C112.617 98.2763 112.134 98.1614 111.581 98.1614C111.028 98.1614 110.545 98.2763 110.108 98.5295C109.67 98.7826 109.325 99.1278 109.072 99.565C108.818 100.002 108.703 100.485 108.703 101.015C108.703 101.544 108.818 102.05 109.072 102.464Z" fill="white"/>
<path d="M117.727 103.961C117.175 103.386 116.898 102.58 116.898 101.522V97.2881H117.958V101.476C117.958 103.064 118.648 103.869 120.053 103.869C120.743 103.869 121.25 103.662 121.618 103.271C121.987 102.88 122.171 102.281 122.171 101.476V97.2881H123.207V101.522C123.207 102.58 122.93 103.409 122.378 103.961C121.825 104.513 121.066 104.813 120.053 104.813C119.04 104.813 118.28 104.536 117.727 103.961Z" fill="white"/>
<path d="M125.184 97.2884H126.243V104.721H125.184V97.2884Z" fill="white"/>
<path d="M132.83 98.2085H130.273V97.2881H136.421V98.2085H133.866V104.72H132.806V98.2085H132.83Z" fill="white"/>
<path d="M142.868 103.8V104.72H137.48V97.2881H142.73V98.2085H138.54V100.486H142.27V101.384H138.54V103.777H142.868V103.8Z" fill="white"/>
<path d="M151.2 104.72V99.313L148.507 103.823H148.023L145.33 99.3359V104.72H144.316V97.2881H145.192L148.3 102.511L151.362 97.2881H152.237V104.72H151.224H151.2Z" fill="white"/>
<path d="M158.798 98.6687V100.625H162.228V102.005H158.798V104.72H157.07V97.2881H162.689V98.6687H158.798Z" fill="white"/>
<path d="M164.648 103.983C164.049 103.385 163.75 102.557 163.75 101.475V97.3101H165.476V101.406C165.476 102.741 166.029 103.408 167.134 103.408C167.664 103.408 168.078 103.247 168.377 102.925C168.653 102.603 168.791 102.096 168.791 101.406V97.3101H170.496V101.475C170.496 102.557 170.196 103.408 169.598 103.983C168.998 104.581 168.17 104.858 167.11 104.858C166.052 104.858 165.223 104.558 164.624 103.983H164.648Z" fill="white"/>
<path d="M173.695 98.6922H171.324V97.2884H177.793V98.6922H175.422V104.721H173.695V98.6922Z" fill="white"/>
<path d="M179.523 103.983C178.925 103.385 178.625 102.556 178.625 101.475V97.3101H180.352V101.406C180.352 102.74 180.904 103.408 182.009 103.408C182.539 103.408 182.954 103.247 183.252 102.925C183.528 102.602 183.668 102.096 183.668 101.406V97.3101H185.371V101.475C185.371 102.556 185.071 103.408 184.473 103.983C183.875 104.581 183.045 104.857 181.987 104.857C180.927 104.857 180.099 104.558 179.499 103.983H179.523Z" fill="white"/>
<path d="M191.794 104.721L190.366 102.65H188.777V104.721H187.051V97.2884H190.273C190.942 97.2884 191.494 97.4035 192.001 97.6106C192.507 97.8177 192.852 98.1399 193.128 98.554C193.382 98.9682 193.52 99.4284 193.52 99.9807C193.52 100.533 193.382 101.016 193.128 101.407C192.852 101.799 192.483 102.121 192.001 102.328L193.659 104.721H191.816H191.794ZM191.356 99.0142C191.08 98.7842 190.688 98.6691 190.182 98.6691H188.777V101.269H190.182C190.688 101.269 191.102 101.154 191.356 100.924C191.632 100.694 191.771 100.372 191.771 99.9576C191.771 99.5435 191.632 99.2213 191.356 98.9913V99.0142Z" fill="white"/>
<path d="M196.328 104.352C195.706 104.03 195.223 103.57 194.877 102.971C194.532 102.373 194.348 101.729 194.348 100.993C194.348 100.256 194.532 99.612 194.877 99.0137C195.223 98.4155 195.706 97.9782 196.328 97.6331C196.949 97.311 197.64 97.1268 198.423 97.1268C199.206 97.1268 199.897 97.2879 200.495 97.6331C201.116 97.9553 201.6 98.4155 201.945 99.0137C202.29 99.5889 202.475 100.256 202.475 100.993C202.475 101.729 202.29 102.373 201.945 102.971C201.6 103.547 201.116 104.007 200.495 104.352C199.873 104.674 199.183 104.858 198.423 104.858C197.663 104.858 196.949 104.697 196.328 104.352ZM199.597 103.087C199.942 102.879 200.218 102.603 200.426 102.235C200.633 101.867 200.725 101.453 200.725 100.993C200.725 100.532 200.633 100.118 200.426 99.75C200.218 99.3819 199.942 99.1058 199.597 98.8987C199.252 98.6916 198.837 98.5995 198.399 98.5995C197.963 98.5995 197.571 98.6916 197.203 98.8987C196.858 99.1058 196.58 99.3819 196.373 99.75C196.166 100.118 196.075 100.532 196.075 100.993C196.075 101.453 196.166 101.867 196.373 102.235C196.58 102.603 196.858 102.879 197.203 103.087C197.548 103.294 197.963 103.386 198.399 103.386C198.837 103.386 199.228 103.294 199.597 103.087Z" fill="white"/>
<path d="M203.277 104.583C203.139 104.445 203.07 104.261 203.07 104.054C203.07 103.847 203.139 103.685 203.277 103.547C203.415 103.409 203.6 103.34 203.784 103.34C203.968 103.34 204.153 103.409 204.291 103.547C204.429 103.685 204.498 103.847 204.498 104.077C204.498 104.307 204.429 104.468 204.291 104.606C204.153 104.744 203.991 104.813 203.807 104.813C203.624 104.813 203.439 104.744 203.301 104.606L203.277 104.583Z" fill="white"/>
<path d="M103.794 32.5605C104.416 32.2153 105.129 32.0542 105.912 32.0542C107.132 32.0542 108.168 32.4914 109.043 33.3427L110.378 32.0542C109.849 31.456 109.204 30.9957 108.422 30.6735C107.639 30.3515 106.787 30.2134 105.843 30.2134C104.669 30.2134 103.633 30.4666 102.689 30.9727C101.768 31.4789 101.031 32.1693 100.501 33.0436C99.972 33.9181 99.7188 34.9305 99.7188 36.035C99.7188 37.1395 99.972 38.152 100.501 39.0264C101.031 39.9007 101.768 40.5911 102.689 41.0974C103.61 41.6036 104.646 41.8567 105.797 41.8567C106.626 41.8567 107.408 41.7416 108.191 41.4885C108.974 41.2354 109.642 40.8902 110.217 40.43V35.9199H108.237V39.4406C107.57 39.8318 106.787 40.0158 105.912 40.0158C105.129 40.0158 104.416 39.8547 103.794 39.5096C103.172 39.1644 102.689 38.6813 102.343 38.0829C101.998 37.4846 101.814 36.7944 101.814 36.0581C101.814 35.3217 101.998 34.5854 102.343 33.9871C102.689 33.3889 103.172 32.9056 103.794 32.5835V32.5605Z" fill="white"/>
<path d="M122.03 30.9727C121.109 30.4666 120.073 30.2135 118.899 30.2135C117.724 30.2135 116.711 30.4666 115.79 30.9727C114.869 31.479 114.133 32.1694 113.603 33.0667C113.074 33.9641 112.82 34.9536 112.82 36.0581C112.82 37.1626 113.074 38.152 113.603 39.0494C114.133 39.9468 114.869 40.6372 115.79 41.1434C116.711 41.6497 117.747 41.9028 118.899 41.9028C120.05 41.9028 121.086 41.6497 122.03 41.1434C122.951 40.6372 123.687 39.9468 124.217 39.0725C124.746 38.198 125 37.1856 125 36.0811C125 34.9766 124.746 33.9641 124.217 33.0897C123.687 32.2154 122.951 31.5251 122.03 31.0189V30.9727ZM122.375 38.0829C122.03 38.6813 121.546 39.1645 120.948 39.5096C120.349 39.8548 119.658 40.0159 118.921 40.0159C118.185 40.0159 117.494 39.8548 116.895 39.5096C116.297 39.1645 115.813 38.7043 115.468 38.0829C115.123 37.4847 114.962 36.7944 114.962 36.0351C114.962 35.2757 115.123 34.6084 115.468 33.9872C115.813 33.3889 116.297 32.9056 116.895 32.5605C117.494 32.2154 118.185 32.0543 118.921 32.0543C119.658 32.0543 120.349 32.2154 120.948 32.5605C121.546 32.9056 122.03 33.3659 122.375 33.9872C122.72 34.5854 122.882 35.2757 122.882 36.0351C122.882 36.7944 122.72 37.4618 122.375 38.0829Z" fill="white"/>
<path d="M131.977 39.095L128.202 30.3741H125.922L130.872 41.6952H132.945L137.87 30.3741H135.776L131.977 39.095Z" fill="white"/>
<path d="M141.806 36.8169H147.285V35.0912H141.806V32.1458H147.976V30.374H139.711V41.6952H148.206V39.9234H141.806V36.8169Z" fill="white"/>
<path d="M160.044 36.6092C160.458 35.9879 160.665 35.2516 160.665 34.4232C160.665 33.5949 160.482 32.8815 160.09 32.2833C159.699 31.6849 159.146 31.2248 158.41 30.9026C157.672 30.5804 156.82 30.4195 155.853 30.4195H151.203V41.7175H153.298V38.4271H155.853C156.037 38.4271 156.199 38.4271 156.291 38.4271L158.594 41.7405H160.849L158.248 38.0359C159.03 37.7367 159.629 37.2766 160.044 36.6552V36.6092ZM155.762 36.6782H153.298V32.1682H155.762C156.682 32.1682 157.373 32.3522 157.856 32.7434C158.341 33.1347 158.57 33.6869 158.57 34.4003C158.57 35.1135 158.341 35.6888 157.856 36.0799C157.373 36.4712 156.682 36.6782 155.762 36.6782Z" fill="white"/>
<path d="M171.623 38.0365L165.384 30.374H163.656V41.6952H165.728V34.0328L171.968 41.6952H173.695V30.374H171.623V38.0365Z" fill="white"/>
<path d="M185.803 30.9727C184.881 30.4666 183.845 30.2135 182.671 30.2135C181.497 30.2135 180.485 30.4666 179.564 30.9727C178.642 31.479 177.906 32.1694 177.376 33.0667C176.847 33.9641 176.594 34.9536 176.594 36.0581C176.594 37.1626 176.847 38.152 177.376 39.0494C177.906 39.9468 178.642 40.6372 179.564 41.1434C180.485 41.6497 181.521 41.9028 182.671 41.9028C183.823 41.9028 184.859 41.6497 185.803 41.1434C186.724 40.6372 187.46 39.9468 187.99 39.0725C188.519 38.198 188.773 37.1856 188.773 36.0811C188.773 34.9766 188.519 33.9641 187.99 33.0897C187.46 32.2154 186.724 31.5251 185.803 31.0189V30.9727ZM186.148 38.0829C185.803 38.6813 185.319 39.1645 184.721 39.5096C184.123 39.8548 183.431 40.0159 182.695 40.0159C181.957 40.0159 181.268 39.8548 180.669 39.5096C180.07 39.1645 179.587 38.7043 179.242 38.0829C178.896 37.4847 178.735 36.7944 178.735 36.0351C178.735 35.2757 178.896 34.6084 179.242 33.9872C179.587 33.3889 180.07 32.9056 180.669 32.5605C181.268 32.2154 181.957 32.0543 182.695 32.0543C183.431 32.0543 184.123 32.2154 184.721 32.5605C185.319 32.9056 185.803 33.3659 186.148 33.9872C186.493 34.5854 186.655 35.2757 186.655 36.0351C186.655 36.7944 186.493 37.4618 186.148 38.0829Z" fill="white"/>
<path d="M204.912 31.0874C203.969 30.6271 202.909 30.374 201.689 30.374H196.738V41.6722H201.689C202.886 41.6722 203.969 41.4421 204.912 40.9588C205.856 40.4986 206.57 39.8314 207.099 38.98C207.606 38.1285 207.882 37.1391 207.882 36.0116C207.882 34.8841 207.629 33.8946 207.099 33.0432C206.593 32.1919 205.856 31.5245 204.912 31.0644V31.0874ZM205.234 38.0825C204.889 38.6809 204.406 39.118 203.784 39.4401C203.162 39.7623 202.426 39.9234 201.596 39.9234H198.857V32.1689H201.596C202.426 32.1689 203.162 32.3299 203.784 32.6521C204.406 32.9743 204.889 33.4114 205.234 34.0097C205.58 34.6079 205.741 35.2753 205.741 36.0577C205.741 36.84 205.58 37.5073 205.234 38.1056V38.0825Z" fill="white"/>
<path d="M221.331 33.0436C220.8 32.1693 220.064 31.4789 219.143 30.9727C218.223 30.4666 217.186 30.2134 216.012 30.2134C214.838 30.2134 213.825 30.4666 212.904 30.9727C211.983 31.4789 211.246 32.1693 210.716 33.0667C210.187 33.9641 209.934 34.9536 209.934 36.0581C209.934 37.1626 210.187 38.152 210.716 39.0494C211.246 39.9467 211.983 40.6371 212.904 41.1434C213.825 41.6496 214.861 41.9027 216.012 41.9027C217.163 41.9027 218.199 41.6496 219.143 41.1434C220.064 40.6371 220.8 39.9467 221.331 39.0724C221.86 38.198 222.114 37.1855 222.114 36.081C222.114 34.9765 221.86 33.9641 221.331 33.0896V33.0436ZM219.488 38.0829C219.143 38.6813 218.659 39.1644 218.061 39.5096C217.462 39.8547 216.771 40.0158 216.035 40.0158C215.299 40.0158 214.607 39.8547 214.009 39.5096C213.411 39.1644 212.927 38.7042 212.582 38.0829C212.237 37.4846 212.075 36.7944 212.075 36.035C212.075 35.2757 212.237 34.6083 212.582 33.9871C212.927 33.3889 213.411 32.9056 214.009 32.5605C214.607 32.2153 215.299 32.0542 216.035 32.0542C216.771 32.0542 217.462 32.2153 218.061 32.5605C218.659 32.9056 219.143 33.3658 219.488 33.9871C219.834 34.5854 219.995 35.2757 219.995 36.035C219.995 36.7944 219.834 37.4617 219.488 38.0829Z" fill="white"/>
<path d="M122.443 47.6552C124.63 48.6446 126.311 50.0482 127.507 51.866C128.705 53.6839 129.281 55.8468 129.281 58.3089C129.281 60.7711 128.683 62.911 127.507 64.7289C126.311 66.5467 124.63 67.9503 122.443 68.9168C120.256 69.9062 117.677 70.3895 114.707 70.3895H108.997V78.9724H99.7188V46.1594H114.73C117.7 46.1594 120.279 46.6427 122.466 47.6321L122.443 47.6552ZM118.46 61.8526C119.427 61.0243 119.91 59.8507 119.91 58.3089C119.91 56.7673 119.427 55.5937 118.46 54.7423C117.493 53.891 116.042 53.4767 114.154 53.4767H108.997V63.0951H114.154C116.065 63.0951 117.493 62.681 118.46 61.8526Z" fill="#007236"/>
<path d="M130.965 46.1819H140.243V78.9947H130.965V46.1819Z" fill="#007236"/>
<path d="M167.936 72.6207H154.052L151.473 78.9947H142.012L156.494 46.1818H165.633L180.161 78.9947H170.491L167.912 72.6207H167.936ZM165.219 65.7867L161.006 55.2939L156.792 65.7867H165.242H165.219Z" fill="#007236"/>
<path d="M182.118 75.6582C179.425 73.0119 178.066 69.2382 178.066 64.3601V46.1819H187.345V64.084C187.345 69.3303 189.416 71.9535 193.584 71.9535C197.751 71.9535 199.777 69.3303 199.777 64.084V46.1819H208.918V64.3601C208.918 69.2382 207.559 72.989 204.865 75.6582C202.172 78.3043 198.372 79.639 193.491 79.639C188.611 79.639 184.812 78.3043 182.118 75.6582Z" fill="#007236"/>
<path d="M220.728 46.1819H211.449V52.1415L220.728 46.1819Z" fill="#007236"/>
<path d="M211.449 54.8338V78.9947H220.728V48.874L211.449 54.8338Z" fill="#007236"/>
<path d="M110.195 35.8968H106.465V37.5536H110.195V35.8968Z" fill="white"/>
</svg>
