<svg width="64" height="94" viewBox="0 0 64 94" fill="none" xmlns="http://www.w3.org/2000/svg">
<g clip-path="url(#clip0_333_120)">
<path d="M36.2383 22.2694C43.4589 18.7101 50.6469 16.0162 57.7369 15.4774C57.7858 14.2364 57.8512 13.012 57.9002 11.7874C50.7939 12.5385 43.6223 14.9386 36.418 18.2529C36.3526 19.5918 36.3036 20.9306 36.2383 22.2694Z" fill="#2D81DF"/>
<path d="M57.8209 18.2697C51.1883 18.6451 44.4578 21.0779 37.711 24.3597C37.6455 25.6822 37.5966 27.021 37.5312 28.3598C44.2945 24.9148 51.025 22.2862 57.6575 22.0575C57.7065 20.7841 57.7719 19.5269 57.8209 18.2697Z" fill="#FFCC55"/>
<path d="M34.1953 36.9149C42.6084 32.2454 50.9727 28.2126 59.1571 28.7677L59.3368 24.8655C51.1523 24.5063 42.7881 28.2779 34.3913 32.8332C34.326 34.1883 34.2769 35.5598 34.2116 36.9149H34.1953Z" fill="#FFCC55"/>
<path d="M59.892 38.6135C59.8267 39.9524 59.7777 41.3075 59.7123 42.6627C41.8405 40.0503 22.825 63.2838 4.95312 60.6714L5.72093 56.753C23.4132 58.8101 42.2162 35.8542 59.892 38.6135Z" fill="#EF4123"/>
<path d="M63.276 46.4832C63.2107 47.8547 63.1617 49.2098 63.0963 50.5813C53.0169 46.6954 42.4636 53.1283 31.943 58.7448C21.4715 64.5083 11.049 69.4718 0.953125 66.9574L1.72093 63.0552C21.7165 69.0473 43.3131 39.4462 63.276 46.4832Z" fill="#EF4123"/>
<path d="M61.3479 53.1611C61.2826 54.5326 61.2173 55.9204 61.1682 57.2919C51.4809 54.8428 41.4177 60.9981 31.4036 65.9942C21.4057 71.2189 11.4733 75.3007 1.76953 74.1578L2.53734 70.2393C12.0287 71.676 21.7978 67.2188 31.5833 61.8961C41.6138 56.6388 51.6768 50.4835 61.3479 53.1447V53.1611Z" fill="#EF4123"/>
<path d="M25.439 84.9658L25.2756 88.7863C19.5252 90.5661 13.8075 91.7252 8.08984 92.9501L8.7923 89.3901C14.3303 88.3619 19.8683 86.9741 25.4553 84.9658H25.439Z" fill="#007932"/>
<path d="M58.77 63.9697C49.5073 63.1533 39.9507 68.9168 30.4593 73.2109C20.7391 77.8968 11.1008 81.0152 1.60938 80.9662L2.37718 77.015C11.6562 77.5865 21.1149 73.9946 30.639 69.1291C40.1467 64.5085 49.7034 58.6307 58.966 59.7409L58.77 63.9697Z" fill="#007932"/>
<path d="M45.8641 73.7003C39.9014 75.8228 33.9059 78.827 27.9269 81.1454C20.3632 84.215 12.8485 86.1905 5.38281 87.2518L6.11796 83.5292C13.3876 82.7618 20.7226 80.476 28.1066 77.1779C34.0856 74.5983 40.0974 71.3655 46.0602 69.2103L45.8641 73.7166V73.7003Z" fill="#007932"/>
<path d="M55.288 5.86176L55.1246 9.38838C49.7173 10.2864 44.2773 12.0171 38.8047 14.2702L38.9844 10.3844C44.4407 8.35981 49.8806 6.84138 55.288 5.86176Z" fill="#2D81DF"/>
<path d="M46.2728 1.91027C48.8538 1.24086 51.4514 0.636758 54.0325 0C54.0325 1.12657 54.0161 2.2858 53.9998 3.44502C51.3697 4.01647 48.7396 4.65323 46.1094 5.40428L46.2728 1.91027Z" fill="#2D81DF"/>
<path d="M57.9353 35.4289C47.4637 34.9064 36.6164 42.6128 25.8672 48.2456L26.0469 44.1149C36.7961 38.482 47.6271 31.0206 58.115 31.4614C58.0497 32.7675 58.0006 34.09 57.9353 35.4289Z" fill="#FFCC55"/>
</g>
<defs>
<clipPath id="clip0_333_120">
<rect width="64" height="93.4028" fill="white"/>
</clipPath>
</defs>
</svg>
